<svg xmlns="http://www.w3.org/2000/svg" viewBox="0 0 1024 1024">
  <defs>
    <linearGradient id="g" x1="0" y1="0" x2="1" y2="1">
      <stop offset="0%" stop-color="#ef4444"/>
      <stop offset="55%" stop-color="#dc2626"/>
      <stop offset="100%" stop-color="#b91c1c"/>
    </linearGradient>
  </defs>
  <rect width="1024" height="1024" fill="url(#g)"/>
  <g fill="none" stroke="#fff" stroke-width="70.4" stroke-linecap="round" stroke-linejoin="round" transform="translate(128,128)">
    <path d="M672 512V256a64 64 0 0 0-32-55.36l-224-128a64 64 0 0 0-64 0l-224 128A64 64 0 0 0 96 256v256a64 64 0 0 0 32 55.36l224 128a64 64 0 0 0 64 0l224-128A64 64 0 0 0 672 512z"/>
    <polyline points="104.64 222.72 384 384.32 663.36 222.72"/>
    <line x1="384" y1="706.56" x2="384" y2="384"/>
  </g>
</svg>
